# xmcd
#
# Track frame offsets:
#	150
#	15111
#	28428
#	41714
#	57823
#	71762
#	89368
#	105808
#	119572
#	136493
#	149268
#	163297
#	179176
#	197676
#	212542
#	226659
#	240218
#	254055
#	270539
#	285290
#
# Disc length: 3968 seconds
#
# Revision: 1
# Processed by: cddbd v1.5.2PL0 Copyright (c) Steve Scherf et al.
# Submitted via: audiograbber 1.82.02
#
DISCID=1e0f7e14
DTITLE=Various Artist  - Country Radio - July 2013
DYEAR=2013
DGENRE=Country
TTITLE0=Keith Urban - Little Bit Of Everything
TTITLE1=Chris Young - Aw Nah
TTITLE2=Dustin Lynch - Wild In Your Smile
TTITLE3=Lady Antebellum - Goodbye Town
TTITLE4=Lee Brice - Parking Lot Party (Radio Edit)
TTITLE5=Trace Adkins (Ft. Colbie Caillat) - Watch The World End
TTITLE6=Joe Nichols - Sunny and 75
TTITLE7=Thomas Rhett - It Goes Like This
TTITLE8=Love and Theft - If You Ever Get Lonely
TTITLE9=Lauren Alaina - Barefoot and Buckwild
TTITLE10=Dylan Scott - Makin' This Boy Go Crazy
TTITLE11=Lizzie Sider - I Love You That Much
TTITLE12=Kellie Pickler - Someone Somewhere Tonight
TTITLE13=Dakota Bradley - Somethin' Like Somethin'
TTITLE14=Ashley Monroe - You Got Me
TTITLE15=LoCash Cowboys - Chase A Little Love
TTITLE16=Jana Kramer - I Hope It Rains
TTITLE17=David Nail - Whatever She's Got (Radio Edit)
TTITLE18=Kim Richey - Come On
TTITLE19=Miranda Lambert - Mama's Broken Heart (Stripped Ver)
EXTD=
EXTT0=
EXTT1=
EXTT2=
EXTT3=
EXTT4=
EXTT5=
EXTT6=
EXTT7=
EXTT8=
EXTT9=
EXTT10=
EXTT11=
EXTT12=
EXTT13=
EXTT14=
EXTT15=
EXTT16=
EXTT17=
EXTT18=
EXTT19=
PLAYORDER=
